<svg width="10" height="6" viewBox="0 0 10 6" fill="none" xmlns="http://www.w3.org/2000/svg">
<path d="M1.83421 0.370595C1.5436 0.115633 1.10132 0.144532 0.846364 0.435141C0.591403 0.725751 0.620301 1.16802 0.910911 1.42298L1.83421 0.370595ZM5.02041 4.09717L4.55876 4.62336L5.02045 5.02842L5.4821 4.62332L5.02041 4.09717ZM9.1293 1.42294C9.41989 1.16796 9.44875 0.725682 9.19376 0.435095C8.93877 0.144508 8.4965 0.115649 8.20591 0.370635L9.1293 1.42294ZM0.910911 1.42298L4.55876 4.62336L5.48205 3.57097L1.83421 0.370595L0.910911 1.42298ZM5.4821 4.62332L9.1293 1.42294L8.20591 0.370635L4.55871 3.57101L5.4821 4.62332Z" fill="white"/>
</svg>
